# xmcd
#
# Track frame offsets: 
#        150
#        19345
#        40103
#        64743
#        91268
#        109635
#        130485
#        151858
#        174125
#        199560
#
# Disc length: 2956 seconds
#
# Revision: 2
# Processed by: cddbd v1.5.2PL0 Copyright (c) Steve Scherf et al.
# Submitted via: ExactAudioCopy v1.0b3
#
DISCID=750b8a0a
DTITLE=Phuong Mai, Tuan Vu - Tinh Lo
DYEAR=1991
DGENRE=
TTITLE0=Tuan Vu - Tinh lo
TTITLE1=Phuong Mai - Tinh bau muon thoi
TTITLE2=Hoa trinh nu
TTITLE3=Phuong Mai - Sao anh no vo tinh
TTITLE4=Duong ve khuya
TTITLE5=Phuong Mai - Tam su ngay cuoi
TTITLE6=Tuan Vu - Tinh chi dep khi con dang do
TTITLE7=Phuong Mai - Cho toi song lai
TTITLE8=Dam cuoi dau Xuan
TTITLE9=Phuong Mai - Nhung chuyen xe trong cuoc doi
EXTD=
EXTT0=
EXTT1=
EXTT2=
EXTT3=
EXTT4=
EXTT5=
EXTT6=
EXTT7=
EXTT8=
EXTT9=
PLAYORDER=
